<svg xmlns="http://www.w3.org/2000/svg" width="24" height="24" viewBox="0 0 24 24">
  <path fill="none" d="M0 0h24v24H0z"/>
  <path
    d="M12 2C6.49 2 2 6.49 2 12s4.49 10 10 10c1.38 0 2.5-1.12 2.5-2.5 0-.61-.23-1.21-.64-1.67-.08-.09-.13-.21-.13-.33 0-.28.22-.5.5-.5H16c3.31 0 6-2.69 6-6 0-4.96-4.49-9-10-9zm4 13h-1.77c-1.38 0-2.5 1.12-2.5 2.5 0 .61.22 1.19.63 1.65.06.07.14.19.14.35 0 .28-.22.5-.5.5-4.41 0-8-3.59-8-8s3.59-8 8-8 8 3.14 8 7c0 2.21-1.79 4-4 4z"/>
  <circle cx="6.5" cy="11.5" r="1.5"/>
  <circle cx="9.5" cy="7.5" r="1.5"/>
  <circle cx="14.5" cy="7.5" r="1.5"/>
  <circle cx="17.5" cy="11.5" r="1.5"/>
</svg>